<?xml version="1.0" encoding="utf-8"?>
<!-- Generator: Adobe Illustrator 19.2.0, SVG Export Plug-In . SVG Version: 6.00 Build 0)  -->
<svg version="1.1" id="Capa_1" xmlns="http://www.w3.org/2000/svg" xmlns:xlink="http://www.w3.org/1999/xlink" x="0px" y="0px"
	 viewBox="0 0 512 512" style="enable-background:new 0 0 512 512;" xml:space="preserve">
<style type="text/css">
	.st0{fill:#FFFFFF;}
</style>
<g>
	<path class="st0" d="M363.5,0h-215c-20.7,0-37.6,16.9-37.6,37.6v436.8c0,20.7,16.9,37.6,37.6,37.6h214.9
		c20.7,0,37.6-16.9,37.6-37.6V37.6C401.1,16.9,384.2,0,363.5,0z M128,68.3h256v324.3H128V68.3z M148.5,17.1h214.9
		c11.3,0,20.5,9.2,20.5,20.5v13.6H128V37.6C128,26.3,137.2,17.1,148.5,17.1z M363.5,494.9h-215c-11.3,0-20.5-9.2-20.5-20.5v-64.8
		h256v64.8C384,485.7,374.8,494.9,363.5,494.9z"/>
	<path class="st0" d="M256,418.1c-18.8,0-34.1,15.3-34.1,34.1s15.3,34.1,34.1,34.1c18.8,0,34.1-15.3,34.1-34.1
		S274.8,418.1,256,418.1z M256,469.3c-9.4,0-17.1-7.7-17.1-17.1s7.7-17.1,17.1-17.1c9.4,0,17.1,7.7,17.1,17.1S265.4,469.3,256,469.3
		z"/>
	<path class="st0" d="M221.9,42.7H256c4.7,0,8.5-3.8,8.5-8.5s-3.8-8.5-8.5-8.5h-34.1c-4.7,0-8.5,3.8-8.5,8.5S217.1,42.7,221.9,42.7z
		"/>
	<path class="st0" d="M281.6,42.7h8.5c4.7,0,8.5-3.8,8.5-8.5s-3.8-8.5-8.5-8.5h-8.5c-4.7,0-8.5,3.8-8.5,8.5S276.9,42.7,281.6,42.7z"
		/>
	<path class="st0" d="M483.1,39c-3.3-3.3-8.7-3.3-12.1,0c-3.3,3.3-3.3,8.7,0,12.1c31.9,31.9,31.9,83.8,0,115.6
		c-3.3,3.3-3.3,8.7,0,12.1c1.7,1.7,3.8,2.5,6,2.5c2.2,0,4.4-0.8,6-2.5C521.6,140.2,521.6,77.5,483.1,39z"/>
	<path class="st0" d="M447.2,58.4c-3.3-3.3-8.7-3.3-12.1,0s-3.3,8.7,0,12.1c10.6,10.6,16.4,24.6,16.4,39.6s-5.8,29-16.4,39.6
		c-3.3,3.3-3.3,8.7,0,12.1c1.7,1.7,3.8,2.5,6,2.5s4.4-0.8,6-2.5c13.8-13.8,21.4-32.1,21.4-51.6S460.9,72.2,447.2,58.4z"/>
	<path class="st0" d="M41,51.1c3.3-3.3,3.3-8.7,0-12.1s-8.7-3.3-12.1,0c-38.5,38.5-38.5,101.2,0,139.8c1.7,1.7,3.8,2.5,6,2.5
		c2.2,0,4.4-0.8,6-2.5c3.3-3.3,3.3-8.7,0-12.1C9.1,134.8,9.1,82.9,41,51.1z"/>
	<path class="st0" d="M76.9,56.1c-3.3-3.3-8.7-3.3-12.1,0c-13.8,13.8-21.4,32.1-21.4,51.6s7.6,37.9,21.4,51.7c1.7,1.7,3.8,2.5,6,2.5
		s4.4-0.8,6-2.5c3.3-3.3,3.3-8.7,0-12.1c-10.6-10.6-16.4-24.6-16.4-39.6s5.8-29,16.4-39.6C80.2,64.8,80.2,59.4,76.9,56.1z"/>
</g>
</svg>
